<svg width="16" height="13" viewBox="0 0 16 13" fill="none" xmlns="http://www.w3.org/2000/svg">
<path fill-rule="evenodd" clip-rule="evenodd" d="M3.54899 0.0314936C4.57095 0.0690099 5.69914 0.364042 6.48029 1.03228C7.65613 2.03815 8.00414 3.13132 7.89278 4.09442C7.81029 4.80785 7.47979 5.41045 7.12521 5.81275C7.44924 6.4421 7.68115 7.16567 7.84662 7.88909C8.03741 7.51536 8.28695 7.15779 8.61331 6.84033C8.26222 5.73619 8.29709 4.78312 8.74129 4.02232C9.22397 3.19562 10.1162 2.72429 11.1573 2.49776C12.2663 2.25644 13.3695 2.52796 14.1704 2.8635C14.5751 3.03304 14.9196 3.22592 15.1697 3.3969C15.2934 3.48147 15.4039 3.56739 15.4894 3.64908C15.5312 3.68899 15.5782 3.73844 15.6187 3.79505L15.6189 3.79533C15.6434 3.82964 15.7351 3.95803 15.7351 4.13811V4.25221L15.6856 4.35501C15.4165 4.91404 14.8945 5.74882 14.2442 6.54066C13.5995 7.32566 12.7863 8.1207 11.9221 8.542C11.1221 8.93202 10.3917 8.76687 9.8433 8.42113C9.55248 8.2378 9.30828 8.00269 9.11574 7.76763C8.66869 8.30231 8.43794 8.97592 8.32495 9.66738C8.25743 10.0805 8.23434 10.4794 8.22882 10.8404C8.2475 11.2661 8.24803 11.6315 8.23843 11.9019C8.22875 12.1744 8.00251 12.3889 7.72987 12.384C7.45723 12.3792 7.23874 12.1568 7.23874 11.8841C7.23874 11.8021 7.23662 11.7027 7.2342 11.5888C7.22986 11.3853 7.22454 11.1356 7.22857 10.857C7.20548 10.3497 7.15491 9.74827 7.061 9.12219C6.92582 8.22095 6.70579 7.30381 6.36958 6.54908C6.16591 6.71957 5.92919 6.88826 5.6711 7.02742C5.15256 7.30702 4.45929 7.51214 3.76567 7.23689L3.7483 7.23L3.7315 7.22184C2.54316 6.6442 1.80592 5.45428 1.35881 4.29987C0.907061 3.13347 0.714909 1.91052 0.675314 1.12857L0.662598 0.877419L0.856638 0.717467C1.48116 0.202657 2.54282 -0.00544304 3.54899 0.0314936ZM6.55749 4.91049C6.13351 4.338 5.61386 3.81524 4.97999 3.39266C4.75022 3.23948 4.43979 3.30157 4.28661 3.53133C4.13344 3.76109 4.19552 4.07153 4.42529 4.2247C5.00545 4.61148 5.47976 5.10565 5.86538 5.66112C5.68203 5.83075 5.44971 6.01069 5.1965 6.14722C4.80392 6.3589 4.44601 6.42351 4.15065 6.3136C3.30744 5.89523 2.70009 4.99415 2.29132 3.93871C1.93507 3.01891 1.7565 2.04968 1.69391 1.35664C2.09178 1.14273 2.7512 1.00288 3.5123 1.03082C4.40555 1.06361 5.28213 1.32328 5.83024 1.79217C6.78423 2.60826 6.96808 3.38558 6.8994 3.97957C6.85747 4.34219 6.71849 4.66298 6.55749 4.91049ZM9.81618 7.04022C9.95922 7.23289 10.1518 7.43348 10.3766 7.5752C10.6939 7.77522 11.0554 7.85203 11.4839 7.64312C12.1554 7.31576 12.8588 6.65187 13.4714 5.90597C13.9593 5.31199 14.3627 4.69924 14.6216 4.23364C14.6163 4.22995 14.6109 4.22622 14.6054 4.22244C14.4141 4.09167 14.1296 3.93062 13.784 3.78582C13.0843 3.49267 12.2017 3.29389 11.3699 3.47489C10.4701 3.67068 9.89011 4.03799 9.60487 4.52653C9.39939 4.87846 9.30728 5.36199 9.43348 6.02234C9.89317 5.62038 10.4462 5.28698 11.1065 5.06849C11.3687 4.98175 11.6515 5.12395 11.7383 5.38612C11.825 5.64828 11.6828 5.93113 11.4206 6.01787C10.7598 6.23652 10.2342 6.59851 9.81618 7.04022Z" fill="#86919D"/>
</svg>
