<svg width="14" height="14" viewBox="0 0 14 14" fill="none" xmlns="http://www.w3.org/2000/svg">
<g clip-path="url(#clip0_204_2)">
<path fill-rule="evenodd" clip-rule="evenodd" d="M7.5 2.33333C7.5 1.32081 8.32081 0.5 9.33333 0.5H12C13.0125 0.5 13.8333 1.32081 13.8333 2.33333V10.3333C13.8333 11.3459 13.0125 12.1667 12 12.1667H9.33333C8.32081 12.1667 7.5 11.3459 7.5 10.3333V2.33333ZM9.33333 1.5C8.8731 1.5 8.5 1.8731 8.5 2.33333V10.3333C8.5 10.7936 8.8731 11.1667 9.33333 11.1667H12C12.4602 11.1667 12.8333 10.7936 12.8333 10.3333V2.33333C12.8333 1.8731 12.4602 1.5 12 1.5H9.33333Z" fill="#86919D"/>
<path fill-rule="evenodd" clip-rule="evenodd" d="M0.166504 9.66537C0.166504 8.65285 0.987316 7.83203 1.99984 7.83203H4.66651C5.67903 7.83203 6.49984 8.65285 6.49984 9.66537V11.6654C6.49984 12.6779 5.67903 13.4987 4.66651 13.4987H1.99984C0.987316 13.4987 0.166504 12.6779 0.166504 11.6654V9.66537ZM1.99984 8.83203C1.5396 8.83203 1.16651 9.20513 1.16651 9.66537V11.6654C1.16651 12.1256 1.5396 12.4987 1.99984 12.4987H4.66651C5.12674 12.4987 5.49984 12.1256 5.49984 11.6654V9.66537C5.49984 9.20513 5.12674 8.83203 4.66651 8.83203H1.99984Z" fill="#86919D"/>
<path fill-rule="evenodd" clip-rule="evenodd" d="M0.166504 2.33333C0.166504 1.32081 0.987316 0.5 1.99984 0.5H4.66651C5.67903 0.5 6.49984 1.32081 6.49984 2.33333V5C6.49984 6.01252 5.67903 6.83333 4.66651 6.83333H1.99984C0.987316 6.83333 0.166504 6.01252 0.166504 5V2.33333ZM1.99984 1.5C1.5396 1.5 1.16651 1.8731 1.16651 2.33333V5C1.16651 5.46024 1.5396 5.83333 1.99984 5.83333H4.66651C5.12674 5.83333 5.49984 5.46024 5.49984 5V2.33333C5.49984 1.8731 5.12674 1.5 4.66651 1.5H1.99984Z" fill="#86919D"/>
<path fill-rule="evenodd" clip-rule="evenodd" d="M7.5 2.33333C7.5 1.32081 8.32081 0.5 9.33333 0.5H12C13.0125 0.5 13.8333 1.32081 13.8333 2.33333V10.3333C13.8333 11.3459 13.0125 12.1667 12 12.1667H9.33333C8.32081 12.1667 7.5 11.3459 7.5 10.3333V2.33333ZM9.33333 1.5C8.8731 1.5 8.5 1.8731 8.5 2.33333V10.3333C8.5 10.7936 8.8731 11.1667 9.33333 11.1667H12C12.4602 11.1667 12.8333 10.7936 12.8333 10.3333V2.33333C12.8333 1.8731 12.4602 1.5 12 1.5H9.33333Z" stroke="#86919D" stroke-width="0.133333" stroke-linecap="round" stroke-linejoin="round"/>
<path fill-rule="evenodd" clip-rule="evenodd" d="M0.166504 9.66537C0.166504 8.65285 0.987316 7.83203 1.99984 7.83203H4.66651C5.67903 7.83203 6.49984 8.65285 6.49984 9.66537V11.6654C6.49984 12.6779 5.67903 13.4987 4.66651 13.4987H1.99984C0.987316 13.4987 0.166504 12.6779 0.166504 11.6654V9.66537ZM1.99984 8.83203C1.5396 8.83203 1.16651 9.20513 1.16651 9.66537V11.6654C1.16651 12.1256 1.5396 12.4987 1.99984 12.4987H4.66651C5.12674 12.4987 5.49984 12.1256 5.49984 11.6654V9.66537C5.49984 9.20513 5.12674 8.83203 4.66651 8.83203H1.99984Z" stroke="#86919D" stroke-width="0.133333" stroke-linecap="round" stroke-linejoin="round"/>
<path fill-rule="evenodd" clip-rule="evenodd" d="M0.166504 2.33333C0.166504 1.32081 0.987316 0.5 1.99984 0.5H4.66651C5.67903 0.5 6.49984 1.32081 6.49984 2.33333V5C6.49984 6.01252 5.67903 6.83333 4.66651 6.83333H1.99984C0.987316 6.83333 0.166504 6.01252 0.166504 5V2.33333ZM1.99984 1.5C1.5396 1.5 1.16651 1.8731 1.16651 2.33333V5C1.16651 5.46024 1.5396 5.83333 1.99984 5.83333H4.66651C5.12674 5.83333 5.49984 5.46024 5.49984 5V2.33333C5.49984 1.8731 5.12674 1.5 4.66651 1.5H1.99984Z" stroke="#86919D" stroke-width="0.133333" stroke-linecap="round" stroke-linejoin="round"/>
</g>
<defs>
<clipPath id="clip0_204_2">
<rect width="14" height="14" fill="white"/>
</clipPath>
</defs>
</svg>
