<svg width="20" height="20" viewBox="0 0 20 20" fill="none" xmlns="http://www.w3.org/2000/svg">
<g clip-path="url(#clip0_11721_30286)">
<path fill-rule="evenodd" clip-rule="evenodd" d="M14.2003 7.66678C14.4732 7.87819 14.523 8.27078 14.3116 8.54363L11.8707 11.6939C11.7687 11.8255 11.6185 11.911 11.4532 11.9314C11.288 11.9518 11.1215 11.9054 10.9906 11.8026L8.64185 9.95763L6.53255 12.6991C6.32206 12.9727 5.92965 13.0238 5.65607 12.8133C5.3825 12.6028 5.33136 12.2104 5.54185 11.9368L8.03613 8.69504C8.13788 8.5628 8.28827 8.47674 8.45382 8.45601C8.61938 8.43528 8.78635 8.4816 8.91756 8.58467L11.2679 10.4309L13.3235 7.77803C13.5349 7.50517 13.9275 7.45536 14.2003 7.66678Z" fill="#86919D"/>
<path fill-rule="evenodd" clip-rule="evenodd" d="M16.6627 2.52344C16.1232 2.52344 15.6858 2.96078 15.6858 3.50027C15.6858 4.03976 16.1232 4.4771 16.6627 4.4771C17.2022 4.4771 17.6395 4.03976 17.6395 3.50027C17.6395 2.96078 17.2022 2.52344 16.6627 2.52344ZM14.4358 3.50027C14.4358 2.27042 15.4328 1.27344 16.6627 1.27344C17.8925 1.27344 18.8895 2.27042 18.8895 3.50027C18.8895 4.73011 17.8925 5.7271 16.6627 5.7271C15.4328 5.7271 14.4358 4.73011 14.4358 3.50027Z" fill="#86919D"/>
<path fill-rule="evenodd" clip-rule="evenodd" d="M2.94823 3.37761C3.78143 2.47884 4.97054 1.97519 6.38045 1.97519H12.4369C12.7821 1.97519 13.0619 2.25501 13.0619 2.60019C13.0619 2.94537 12.7821 3.22519 12.4369 3.22519H6.38045C5.28082 3.22519 4.43713 3.61018 3.86492 4.22742C3.28775 4.85001 2.93985 5.76046 2.93985 6.887V13.6223C2.93985 14.752 3.28195 15.6598 3.8541 16.2787C4.42074 16.8918 5.26305 17.2765 6.38045 17.2765H13.5505C14.651 17.2765 15.4947 16.8928 16.0666 16.2775C16.6433 15.657 16.9911 14.7488 16.9911 13.6223V7.75656C16.9911 7.41138 17.271 7.13156 17.6161 7.13156C17.9613 7.13156 18.2411 7.41138 18.2411 7.75656V13.6223C18.2411 15.0054 17.811 16.2368 16.9822 17.1285C16.1487 18.0253 14.9596 18.5265 13.5505 18.5265H6.38045C4.9578 18.5265 3.76731 18.0264 2.93617 17.1272C2.11053 16.234 1.68985 15.0022 1.68985 13.6223V6.887C1.68985 5.504 2.11998 4.27104 2.94823 3.37761Z" fill="#86919D"/>
<path fill-rule="evenodd" clip-rule="evenodd" d="M14.2003 7.66678C14.4732 7.87819 14.523 8.27078 14.3116 8.54363L11.8707 11.6939C11.7687 11.8255 11.6185 11.911 11.4532 11.9314C11.288 11.9518 11.1215 11.9054 10.9906 11.8026L8.64185 9.95763L6.53255 12.6991C6.32206 12.9727 5.92965 13.0238 5.65607 12.8133C5.3825 12.6028 5.33136 12.2104 5.54185 11.9368L8.03613 8.69504C8.13788 8.5628 8.28827 8.47674 8.45382 8.45601C8.61938 8.43528 8.78635 8.4816 8.91756 8.58467L11.2679 10.4309L13.3235 7.77803C13.5349 7.50517 13.9275 7.45536 14.2003 7.66678Z" stroke="#86919D" stroke-width="0.2" stroke-linecap="round" stroke-linejoin="round"/>
<path fill-rule="evenodd" clip-rule="evenodd" d="M16.6627 2.52344C16.1232 2.52344 15.6858 2.96078 15.6858 3.50027C15.6858 4.03976 16.1232 4.4771 16.6627 4.4771C17.2022 4.4771 17.6395 4.03976 17.6395 3.50027C17.6395 2.96078 17.2022 2.52344 16.6627 2.52344ZM14.4358 3.50027C14.4358 2.27042 15.4328 1.27344 16.6627 1.27344C17.8925 1.27344 18.8895 2.27042 18.8895 3.50027C18.8895 4.73011 17.8925 5.7271 16.6627 5.7271C15.4328 5.7271 14.4358 4.73011 14.4358 3.50027Z" stroke="#86919D" stroke-width="0.2" stroke-linecap="round" stroke-linejoin="round"/>
<path fill-rule="evenodd" clip-rule="evenodd" d="M2.94823 3.37761C3.78143 2.47884 4.97054 1.97519 6.38045 1.97519H12.4369C12.7821 1.97519 13.0619 2.25501 13.0619 2.60019C13.0619 2.94537 12.7821 3.22519 12.4369 3.22519H6.38045C5.28082 3.22519 4.43713 3.61018 3.86492 4.22742C3.28775 4.85001 2.93985 5.76046 2.93985 6.887V13.6223C2.93985 14.752 3.28195 15.6598 3.8541 16.2787C4.42074 16.8918 5.26305 17.2765 6.38045 17.2765H13.5505C14.651 17.2765 15.4947 16.8928 16.0666 16.2775C16.6433 15.657 16.9911 14.7488 16.9911 13.6223V7.75656C16.9911 7.41138 17.271 7.13156 17.6161 7.13156C17.9613 7.13156 18.2411 7.41138 18.2411 7.75656V13.6223C18.2411 15.0054 17.811 16.2368 16.9822 17.1285C16.1487 18.0253 14.9596 18.5265 13.5505 18.5265H6.38045C4.9578 18.5265 3.76731 18.0264 2.93617 17.1272C2.11053 16.234 1.68985 15.0022 1.68985 13.6223V6.887C1.68985 5.504 2.11998 4.27104 2.94823 3.37761Z" stroke="#86919D" stroke-width="0.2" stroke-linecap="round" stroke-linejoin="round"/>
</g>
<defs>
<clipPath id="clip0_11721_30286">
<rect width="20" height="20" fill="white"/>
</clipPath>
</defs>
</svg>
