<svg width="20" height="20" viewBox="0 0 20 20" fill="none" xmlns="http://www.w3.org/2000/svg">
<g clip-path="url(#clip0_11721_30301)">
<path fill-rule="evenodd" clip-rule="evenodd" d="M3.80739 6.62088C3.80739 3.94501 6.29718 1.04163 10 1.04163C13.7029 1.04163 16.1926 3.94501 16.1926 6.62088C16.1926 7.30737 16.28 7.78806 16.3993 8.1577C16.5189 8.52852 16.6784 8.81344 16.862 9.12089C16.8808 9.15233 16.9001 9.18437 16.9198 9.21701C17.0873 9.49547 17.2819 9.81872 17.4303 10.2072C17.6016 10.6553 17.7084 11.1752 17.7084 11.8504C17.7084 11.8684 17.7076 11.8864 17.706 11.9044C17.6454 12.6026 17.438 13.2153 17.0433 13.7258C16.6504 14.2341 16.1076 14.5947 15.4531 14.8511C14.1743 15.3519 12.3475 15.498 10 15.498C7.65361 15.498 5.82683 15.3542 4.54804 14.8547C3.89336 14.5989 3.35028 14.2385 2.95706 13.7295C2.5622 13.2183 2.35478 12.6045 2.29403 11.9044C2.29247 11.8864 2.29169 11.8684 2.29169 11.8504C2.29169 11.1752 2.39846 10.6553 2.5697 10.2072C2.71818 9.81871 2.91272 9.49546 3.0803 9.217C3.09994 9.18435 3.11922 9.15233 3.138 9.12089C3.32169 8.81344 3.48112 8.52852 3.60076 8.1577C3.72002 7.78806 3.80739 7.30737 3.80739 6.62088ZM10 2.29163C6.96081 2.29163 5.05739 4.6618 5.05739 6.62088C5.05739 7.41785 4.95531 8.03031 4.79037 8.54152C4.62582 9.05155 4.40632 9.43519 4.21108 9.76199C4.19176 9.79431 4.17286 9.82583 4.15437 9.85666C3.98148 10.1449 3.84421 10.3738 3.73734 10.6535C3.62632 10.944 3.54454 11.3039 3.54176 11.823C3.58899 12.3236 3.73117 12.6869 3.94626 12.9653C4.16678 13.2507 4.50038 13.4941 5.00287 13.6904C6.03842 14.0949 7.6479 14.248 10 14.248C12.3519 14.248 13.9617 14.0927 14.9973 13.6871C15.5 13.4903 15.8338 13.2465 16.0544 12.9612C16.2694 12.6831 16.4113 12.3209 16.4583 11.823C16.4555 11.3039 16.3737 10.944 16.2627 10.6535C16.1558 10.3738 16.0186 10.1449 15.8457 9.85666C15.8272 9.82583 15.8083 9.79431 15.789 9.76199C15.5937 9.43519 15.3742 9.05155 15.2097 8.54152C15.0447 8.03031 14.9426 7.41785 14.9426 6.62088C14.9426 4.6618 13.0392 2.29163 10 2.29163ZM7.51518 16.9161C7.77193 16.6854 8.16709 16.7065 8.3978 16.9632C9.29472 17.9614 10.6353 17.952 11.5263 16.9627C11.7573 16.7062 12.1524 16.6856 12.4089 16.9166C12.6654 17.1475 12.6861 17.5427 12.4551 17.7992C11.0725 19.3345 8.8664 19.355 7.46801 17.7987C7.23731 17.5419 7.25842 17.1468 7.51518 16.9161Z" fill="#86919D" stroke="#86919D" stroke-width="0.2" stroke-linecap="round" stroke-linejoin="round"/>
</g>
<defs>
<clipPath id="clip0_11721_30301">
<rect width="20" height="20" fill="white"/>
</clipPath>
</defs>
</svg>
