<svg width="20" height="20" viewBox="0 0 20 20" fill="none" xmlns="http://www.w3.org/2000/svg">
<g clip-path="url(#clip0_11721_30297)">
<path fill-rule="evenodd" clip-rule="evenodd" d="M6.14288 7.87639C6.48806 7.87639 6.76788 8.15621 6.76788 8.50139V14.2182C6.76788 14.5633 6.48806 14.8432 6.14288 14.8432C5.7977 14.8432 5.51788 14.5633 5.51788 14.2182V8.50139C5.51788 8.15621 5.7977 7.87639 6.14288 7.87639Z" fill="#86919D"/>
<path fill-rule="evenodd" clip-rule="evenodd" d="M10.0318 5.1409C10.3769 5.1409 10.6568 5.42072 10.6568 5.7659V14.2182C10.6568 14.5633 10.3769 14.8432 10.0318 14.8432C9.68659 14.8432 9.40677 14.5633 9.40677 14.2182V5.7659C9.40677 5.42072 9.68659 5.1409 10.0318 5.1409Z" fill="#86919D"/>
<path fill-rule="evenodd" clip-rule="evenodd" d="M13.8572 10.8973C14.2023 10.8973 14.4822 11.1771 14.4822 11.5223V14.2182C14.4822 14.5633 14.2023 14.8432 13.8572 14.8432C13.512 14.8432 13.2322 14.5633 13.2322 14.2182V11.5223C13.2322 11.1771 13.512 10.8973 13.8572 10.8973Z" fill="#86919D"/>
<path fill-rule="evenodd" clip-rule="evenodd" d="M2.40297 2.54476C3.30017 1.58232 4.57939 1.04163 6.09526 1.04163H13.9048C15.4242 1.04163 16.7038 1.58207 17.6003 2.54506C18.4922 3.503 18.9584 4.82816 18.9584 6.32092V13.679C18.9584 15.1718 18.4922 16.4969 17.6003 17.4549C16.7038 18.4178 15.4242 18.9583 13.9048 18.9583H6.09526C4.57582 18.9583 3.29627 18.4178 2.39972 17.4549C1.50787 16.4969 1.04169 15.1718 1.04169 13.679V6.32092C1.04169 4.82739 1.51031 3.50234 2.40297 2.54476ZM3.3173 3.39711C2.67623 4.0848 2.29169 5.08689 2.29169 6.32092V13.679C2.29169 14.9138 2.67471 15.9158 3.3146 16.6031C3.9498 17.2854 4.88454 17.7083 6.09526 17.7083H13.9048C15.1155 17.7083 16.0502 17.2854 16.6854 16.6031C17.3253 15.9158 17.7084 14.9138 17.7084 13.679V6.32092C17.7084 5.08613 17.3253 4.08414 16.6854 3.39682C16.0502 2.71455 15.1155 2.29163 13.9048 2.29163H6.09526C4.88891 2.29163 3.95383 2.7143 3.3173 3.39711Z" fill="#86919D"/>
<path fill-rule="evenodd" clip-rule="evenodd" d="M6.14288 7.87639C6.48806 7.87639 6.76788 8.15621 6.76788 8.50139V14.2182C6.76788 14.5633 6.48806 14.8432 6.14288 14.8432C5.7977 14.8432 5.51788 14.5633 5.51788 14.2182V8.50139C5.51788 8.15621 5.7977 7.87639 6.14288 7.87639Z" stroke="#86919D" stroke-width="0.1" stroke-linecap="round" stroke-linejoin="round"/>
<path fill-rule="evenodd" clip-rule="evenodd" d="M10.0318 5.1409C10.3769 5.1409 10.6568 5.42072 10.6568 5.7659V14.2182C10.6568 14.5633 10.3769 14.8432 10.0318 14.8432C9.68659 14.8432 9.40677 14.5633 9.40677 14.2182V5.7659C9.40677 5.42072 9.68659 5.1409 10.0318 5.1409Z" stroke="#86919D" stroke-width="0.1" stroke-linecap="round" stroke-linejoin="round"/>
<path fill-rule="evenodd" clip-rule="evenodd" d="M13.8572 10.8973C14.2023 10.8973 14.4822 11.1771 14.4822 11.5223V14.2182C14.4822 14.5633 14.2023 14.8432 13.8572 14.8432C13.512 14.8432 13.2322 14.5633 13.2322 14.2182V11.5223C13.2322 11.1771 13.512 10.8973 13.8572 10.8973Z" stroke="#86919D" stroke-width="0.1" stroke-linecap="round" stroke-linejoin="round"/>
<path fill-rule="evenodd" clip-rule="evenodd" d="M2.40297 2.54476C3.30017 1.58232 4.57939 1.04163 6.09526 1.04163H13.9048C15.4242 1.04163 16.7038 1.58207 17.6003 2.54506C18.4922 3.503 18.9584 4.82816 18.9584 6.32092V13.679C18.9584 15.1718 18.4922 16.4969 17.6003 17.4549C16.7038 18.4178 15.4242 18.9583 13.9048 18.9583H6.09526C4.57582 18.9583 3.29627 18.4178 2.39972 17.4549C1.50787 16.4969 1.04169 15.1718 1.04169 13.679V6.32092C1.04169 4.82739 1.51031 3.50234 2.40297 2.54476ZM3.3173 3.39711C2.67623 4.0848 2.29169 5.08689 2.29169 6.32092V13.679C2.29169 14.9138 2.67471 15.9158 3.3146 16.6031C3.9498 17.2854 4.88454 17.7083 6.09526 17.7083H13.9048C15.1155 17.7083 16.0502 17.2854 16.6854 16.6031C17.3253 15.9158 17.7084 14.9138 17.7084 13.679V6.32092C17.7084 5.08613 17.3253 4.08414 16.6854 3.39682C16.0502 2.71455 15.1155 2.29163 13.9048 2.29163H6.09526C4.88891 2.29163 3.95383 2.7143 3.3173 3.39711Z" stroke="#86919D" stroke-width="0.1" stroke-linecap="round" stroke-linejoin="round"/>
</g>
<defs>
<clipPath id="clip0_11721_30297">
<rect width="20" height="20" fill="white"/>
</clipPath>
</defs>
</svg>
