<svg width="32" height="32" viewBox="0 0 32 32" fill="none" xmlns="http://www.w3.org/2000/svg">
<rect width="32" height="32" rx="16" fill="#D9E3EE"/>
<path fill-rule="evenodd" clip-rule="evenodd" d="M16 7.75C13.1005 7.75 10.75 10.1005 10.75 13C10.75 15.8995 13.1005 18.25 16 18.25C18.8995 18.25 21.25 15.8995 21.25 13C21.25 10.1005 18.8995 7.75 16 7.75ZM9.25 13C9.25 9.27208 12.2721 6.25 16 6.25C19.7279 6.25 22.75 9.27208 22.75 13C22.75 16.7279 19.7279 19.75 16 19.75C12.2721 19.75 9.25 16.7279 9.25 13Z" fill="#325C89"/>
<path fill-rule="evenodd" clip-rule="evenodd" d="M16.0001 19.75C14.2885 19.75 12.607 20.2004 11.1245 21.056C9.64206 21.9116 8.41087 23.1422 7.55463 24.6243C7.34742 24.983 6.88869 25.1057 6.53003 24.8985C6.17137 24.6913 6.04859 24.2326 6.2558 23.8739C7.24373 22.1639 8.66427 20.744 10.3747 19.7568C12.0851 18.7697 14.0252 18.25 16.0001 18.25C17.975 18.25 19.9151 18.7697 21.6255 19.757C23.3359 20.7442 24.7564 22.1641 25.7443 23.8741C25.9515 24.2328 25.8287 24.6915 25.4701 24.8987C25.1114 25.1059 24.6527 24.9831 24.4455 24.6245C23.5893 23.1424 22.3581 21.9117 20.8757 21.0561C19.3932 20.2005 17.7117 19.75 16.0001 19.75Z" fill="#325C89"/>
</svg>
