<svg width="20" height="20" viewBox="0 0 20 20" fill="none" xmlns="http://www.w3.org/2000/svg">
<g clip-path="url(#clip0_10957_55330)">
<path fill-rule="evenodd" clip-rule="evenodd" d="M4.375 1.375C3.4085 1.375 2.625 2.1585 2.625 3.125V15.625C2.625 16.5915 3.4085 17.375 4.375 17.375H11.7146C11.2762 17.1037 10.8835 16.7657 10.5507 16.375H4.375C3.96079 16.375 3.625 16.0392 3.625 15.625V3.125C3.625 2.71079 3.96079 2.375 4.375 2.375H11.375V5C11.375 5.9665 12.1585 6.75 13.125 6.75H15.75V8.46427C16.1017 8.57189 16.4366 8.71777 16.75 8.89706V6.25C16.75 6.11739 16.6973 5.99021 16.6036 5.89645L12.2286 1.52145C12.1348 1.42768 12.0076 1.375 11.875 1.375H4.375ZM12.9015 8.45193C12.8104 8.32939 12.6644 8.25 12.5 8.25H6.25C5.97386 8.25 5.75 8.47386 5.75 8.75C5.75 9.02614 5.97386 9.25 6.25 9.25H11.3271C11.7939 8.8957 12.3257 8.62265 12.9015 8.45193ZM10.0141 10.75H6.25C5.97386 10.75 5.75 10.9739 5.75 11.25C5.75 11.5261 5.97386 11.75 6.25 11.75H9.58541C9.69174 11.3985 9.83626 11.0635 10.0141 10.75ZM15.0429 5.75L12.375 3.08211V5C12.375 5.41421 12.7108 5.75 13.125 5.75H15.0429Z" fill="#86919D"/>
<ellipse cx="14.3053" cy="13.1795" rx="4.93025" ry="4.93025" stroke="#86919D" stroke-width="1.1248"/>
<path d="M16.2006 12.1448L13.8251 14.5203L12.41 13.1052" stroke="#86919D" stroke-width="1.1248" stroke-linecap="round"/>
</g>
<defs>
<clipPath id="clip0_10957_55330">
<rect width="20" height="20" fill="white"/>
</clipPath>
</defs>
</svg>
