<svg width="32" height="32" viewBox="0 0 32 32" fill="none" xmlns="http://www.w3.org/2000/svg">
<rect width="32" height="32" rx="16" fill="#D9E3EE"/>
<path d="M7.66666 15.68C8.33332 15.04 8.99999 14.4 9.66666 14.4M9.66666 14.4C9.66666 13.376 9.66666 9.70667 9.66666 8H15L16.3333 13.76M9.66666 14.4C10.3333 14.4 12.9767 14.2835 14.3333 15.04M16.3333 13.76L14.3333 15.04M16.3333 13.76L22.4311 14.6606M14.3333 15.04C15.6272 15.7615 17 17.6 17 18.88H23.6667L25 15.04L22.4311 14.6606M22.4311 14.6606V12.48C22.3985 12.0533 22.6 11.2 23.6667 11.2" stroke="#325C89" stroke-linejoin="round"/>
<path d="M14.5 20.1599C14.5 21.9855 12.9524 23.4999 11 23.4999C9.04757 23.4999 7.5 21.9855 7.5 20.1599C7.5 18.3344 9.04757 16.8199 11 16.8199C12.9524 16.8199 14.5 18.3344 14.5 20.1599Z" stroke="#325C89"/>
<path d="M23.1667 22.08C23.1667 22.8452 22.5145 23.5 21.6667 23.5C20.8188 23.5 20.1667 22.8452 20.1667 22.08C20.1667 21.3148 20.8188 20.66 21.6667 20.66C22.5145 20.66 23.1667 21.3148 23.1667 22.08Z" stroke="#325C89"/>
</svg>
